<svg width="40" height="40" viewBox="0 0 40 40" fill="none" xmlns="http://www.w3.org/2000/svg">
<path d="M17.2016 0.550108C12.9296 1.19691 9.1476 3.10731 6.1296 6.12531C3.0824 9.16251 1.1716 12.9841 0.554402 17.2561C0.348402 18.6277 0.348402 21.3517 0.554402 22.7233C1.1716 27.0149 3.0824 30.8069 6.1296 33.8541C9.1964 36.9309 13.0176 38.8317 17.3192 39.4489C18.74 39.6449 21.3952 39.6449 22.7864 39.4393C29.1456 38.4889 34.564 34.5989 37.4936 28.8769C38.924 26.0745 39.6 23.2429 39.6 19.9897C39.6 14.6693 37.6112 9.87811 33.8584 6.12531C30.8012 3.06811 27.0484 1.18691 22.6884 0.540507C21.4636 0.354107 18.4164 0.364108 17.2016 0.550108ZM23.6292 2.28451C25.3048 2.64691 26.5392 3.08811 28.1264 3.89131C30.0272 4.84171 31.1444 5.66451 32.7316 7.25211C34.3188 8.83931 35.132 9.95651 36.0924 11.8573C37.2584 14.1793 37.8756 16.4037 38.0128 18.8237C38.1988 22.2529 37.572 25.2709 36.0532 28.2201C34.2504 31.7181 31.536 34.4029 27.9796 36.1861C23.8644 38.2537 18.838 38.6161 14.3796 37.1661C12.9884 36.7057 10.7052 35.5689 9.51 34.7165C8.3148 33.8641 6.12 31.6693 5.2676 30.4741C3.9152 28.5633 2.7688 25.8881 2.2396 23.4189C2.0536 22.5173 2.024 22.0865 2.0144 20.0385C2.0144 17.9417 2.0436 17.5693 2.2496 16.5601C3.2388 11.7297 5.914 7.73211 9.98 4.95931C11.5184 3.91091 13.6544 2.96051 15.4868 2.50011C17.2896 2.03971 18.0148 1.96131 20.3368 2.00051C22.1888 2.02971 22.6492 2.06891 23.6292 2.28451Z" fill="white"/>
<path d="M18.0932 11.6119C15.1048 12.0331 12.028 13.4735 8.92196 15.8839C7.71676 16.8147 5.26716 19.2155 5.04196 19.6759C4.88516 20.0091 4.88516 20.0383 5.05156 20.3519C5.14956 20.5283 5.87476 21.3023 6.65836 22.0763C10.0288 25.3683 13.6152 27.4455 17.2896 28.2395C18.0932 28.4159 18.6024 28.4551 19.994 28.4551C21.3852 28.4551 21.8948 28.4159 22.6984 28.2395C25.6572 27.6027 28.7732 26.0055 31.5756 23.6835C32.8984 22.5863 34.946 20.4991 35.0344 20.1659C35.142 19.7643 34.858 19.3919 33.2904 17.8731C29.8708 14.5419 26.0004 12.3371 22.4928 11.7099C21.2384 11.4847 19.2688 11.4455 18.0932 11.6119ZM21.6104 13.4835C21.9336 13.5619 22.5704 13.8067 23.0312 14.0323C23.6976 14.3555 24.0308 14.6007 24.7068 15.2767C25.3828 15.9527 25.6276 16.2859 25.9512 16.9523C26.5 18.0595 26.686 18.8531 26.686 19.9899C26.686 21.1263 26.5 21.9203 25.9512 23.0275C25.3828 24.2031 24.2072 25.3791 23.0312 25.9475C21.924 26.4963 21.1304 26.6823 19.9936 26.6823C18.8572 26.6823 18.0632 26.4963 16.956 25.9475C15.7804 25.3791 14.6044 24.2035 14.036 23.0275C13.4676 21.8715 13.3108 21.2147 13.3208 19.9899C13.3208 18.7651 13.4776 18.0891 14.036 16.9523C14.3592 16.2763 14.6044 15.9527 15.2804 15.2867C17.0348 13.5423 19.22 12.9151 21.6104 13.4835ZM13.086 15.4431C12.1844 16.7951 11.7436 18.2847 11.7436 19.9895C11.7436 21.6847 12.1944 23.2231 13.096 24.5651C13.3212 24.8983 13.488 25.1823 13.4584 25.1823C13.3116 25.1823 11.2636 23.8791 10.4404 23.2715C9.55876 22.6055 7.56996 20.8811 7.07996 20.3519C6.91356 20.1755 6.86436 20.0383 6.91356 19.9011C7.00196 19.6171 9.02036 17.8043 10.3528 16.7951C11.3228 16.0699 13.2628 14.8159 13.4488 14.8059C13.488 14.7963 13.3312 15.0903 13.086 15.4431ZM27.558 15.3943C28.1164 15.7175 29.0572 16.3543 29.6448 16.8051C30.8204 17.6967 32.9664 19.5975 33.1232 19.8915C33.2016 20.0483 33.0744 20.2147 32.1632 21.0575C31.0364 22.1059 29.9292 23.0171 28.91 23.7327C28.224 24.2127 26.6272 25.1827 26.5192 25.1827C26.49 25.1827 26.6172 24.9671 26.8032 24.7123C27.2832 24.0459 27.7928 22.9191 28.0376 21.9983C28.3316 20.9107 28.3216 19.0883 28.0376 17.9811C27.7928 17.0699 27.2832 15.9331 26.8032 15.2671C26.6168 15.0123 26.48 14.7967 26.5092 14.7967C26.5384 14.7967 27.0092 15.0611 27.558 15.3943Z" fill="white"/>
<path d="M19.0043 16.2957C17.9463 16.5993 17.0543 17.3541 16.5451 18.4025C16.2511 19.0001 16.2219 19.1373 16.2219 19.9897C16.2219 20.8225 16.2511 20.9893 16.5259 21.5573C16.9079 22.3705 17.5643 23.0269 18.4071 23.4385C19.0047 23.7325 19.1323 23.7617 19.9943 23.7617C20.8271 23.7617 20.9939 23.7325 21.5619 23.4577C22.3751 23.0757 23.0807 22.3701 23.4627 21.5569C23.7371 20.9885 23.7663 20.8221 23.7663 19.9893C23.7663 19.1269 23.7371 18.9997 23.4431 18.4021C22.7963 17.0793 21.6207 16.2857 20.2295 16.2073C19.7683 16.1881 19.2787 16.2173 19.0043 16.2957ZM21.0323 18.0105C21.5223 18.2653 21.7967 18.5593 22.0415 19.1081C22.3943 19.8821 22.2275 20.9013 21.6299 21.5477C21.3067 21.9005 20.5031 22.2433 19.9935 22.2433C19.4839 22.2433 18.6807 21.9005 18.3571 21.5477C17.9555 21.1069 17.7103 20.4013 17.7691 19.8329C17.8771 18.8141 18.4159 18.1477 19.4055 17.8241C19.7783 17.6969 20.6111 17.7949 21.0323 18.0105Z" fill="white"/>
</svg>
