<svg width="18" height="21" viewBox="0 0 18 21" fill="none" xmlns="http://www.w3.org/2000/svg">
<g clip-path="url(#clip0_164_923)">
<path fill-rule="evenodd" clip-rule="evenodd" d="M8.697 0.5C6.334 0.5 6.039 0.511111 5.111 0.558889C4.185 0.605556 3.553 0.768889 3.001 1.00778C2.42017 1.24958 1.89414 1.63 1.46 2.12222C0.977 2.66 0.68 3.19889 0.456 3.83333C0.242 4.44778 0.094 5.15 0.052 6.18C0.017 7.04667 0.003 7.41667 0 9.07556V11.25C0.003 12.9089 0.017 13.28 0.052 14.1478C0.094 15.1756 0.242 15.8789 0.456 16.4922C0.67494 17.1368 1.01754 17.7207 1.46 18.2033C1.943 18.7411 2.428 19.0711 3.001 19.3189C3.553 19.5578 4.185 19.7211 5.111 19.7678C6.039 19.8144 6.334 19.8256 8.697 19.8256C11.058 19.8256 11.355 19.8144 12.282 19.7678C13.208 19.7211 13.84 19.5578 14.393 19.3189C14.9733 19.0759 15.4988 18.6952 15.933 18.2033C16.3765 17.7218 16.719 17.1376 16.936 16.4922C17.152 15.8789 17.298 15.1756 17.341 14.1478C17.383 13.1167 17.393 12.7867 17.393 10.1622C17.393 7.53889 17.383 7.21 17.341 6.18C17.298 5.15 17.152 4.44778 16.936 3.83333C16.718 3.18851 16.3757 2.60449 15.933 2.12222C15.499 1.63028 14.9734 1.24989 14.393 1.00778C13.84 0.768889 13.208 0.605556 12.282 0.558889C11.355 0.511111 11.058 0.5 8.697 0.5ZM5.182 18.0289C4.334 17.9856 3.874 17.8278 3.568 17.6956C3.1899 17.5412 2.84807 17.2939 2.568 16.9722C2.27857 16.6612 2.05634 16.2813 1.918 15.8611C1.798 15.5211 1.657 15.01 1.617 14.0678C1.576 13.0489 1.567 12.7433 1.567 10.1622C1.567 7.58222 1.576 7.27778 1.617 6.25889C1.657 5.31667 1.798 4.80444 1.918 4.46444C2.074 4.01222 2.264 3.69111 2.568 3.35333C2.84839 3.03234 3.19015 2.78551 3.568 2.63111C3.874 2.49889 4.334 2.34111 5.182 2.29778C6.099 2.25111 6.375 2.24111 8.697 2.24111C11.018 2.24111 11.293 2.25111 12.21 2.29778C13.059 2.34111 13.519 2.49889 13.826 2.63111C14.232 2.80556 14.521 3.01556 14.826 3.35333C15.129 3.69111 15.318 4.01222 15.476 4.46444C15.595 4.80444 15.736 5.31667 15.776 6.25889C15.817 7.27778 15.827 7.58222 15.827 10.1622C15.827 12.7433 15.817 13.0489 15.776 14.0678C15.736 15.01 15.595 15.5211 15.476 15.8611C15.3366 16.2807 15.1145 16.6603 14.826 16.9722C14.5458 17.2937 14.204 17.5409 13.826 17.6956C13.519 17.8278 13.059 17.9856 12.21 18.0289C11.293 18.0744 11.019 18.0856 8.697 18.0856C6.375 18.0856 6.099 18.0744 5.182 18.0289ZM12.296 5.00444C12.2958 5.15656 12.3226 5.30723 12.3748 5.44785C12.427 5.58847 12.5036 5.71628 12.6003 5.824C12.6969 5.93171 12.8118 6.01722 12.9382 6.07563C13.0646 6.13405 13.2001 6.16423 13.337 6.16444C13.4739 6.16466 13.6095 6.13492 13.7361 6.07691C13.8626 6.0189 13.9777 5.93376 14.0746 5.82635C14.1715 5.71895 14.2485 5.59138 14.3011 5.45093C14.3536 5.31047 14.3808 5.15989 14.381 5.00778C14.3814 4.70057 14.2719 4.40577 14.0767 4.18822C13.8815 3.97068 13.6165 3.84822 13.34 3.84778C13.0635 3.84734 12.7982 3.96895 12.6024 4.18587C12.4066 4.40278 12.2964 4.69724 12.296 5.00444ZM4.231 10.1622C4.231 10.8139 4.34652 11.4591 4.57095 12.0612C4.79539 12.6632 5.12435 13.2103 5.53906 13.671C5.95377 14.1318 6.4461 14.4973 6.98794 14.7467C7.52978 14.9961 8.11052 15.1244 8.697 15.1244C9.28348 15.1244 9.86422 14.9961 10.4061 14.7467C10.9479 14.4973 11.4402 14.1318 11.8549 13.671C12.2696 13.2103 12.5986 12.6632 12.823 12.0612C13.0475 11.4591 13.163 10.8139 13.163 10.1622C13.163 8.84616 12.6925 7.584 11.8549 6.6534C11.0174 5.7228 9.88146 5.2 8.697 5.2C7.51254 5.2 6.3766 5.7228 5.53906 6.6534C4.70152 7.584 4.231 8.84616 4.231 10.1622ZM5.798 10.1622C5.78783 9.7321 5.8553 9.30407 5.99641 8.90339C6.13753 8.50271 6.34944 8.13748 6.61964 7.82927C6.88984 7.52105 7.21287 7.27609 7.56965 7.10883C7.92644 6.94156 8.30976 6.85539 8.697 6.85539C9.08424 6.85539 9.46756 6.94156 9.82435 7.10883C10.1811 7.27609 10.5042 7.52105 10.7744 7.82927C11.0446 8.13748 11.2565 8.50271 11.3976 8.90339C11.5387 9.30407 11.6062 9.7321 11.596 10.1622C11.5761 11.0019 11.262 11.7997 10.7205 12.3858C10.179 12.9719 9.45294 13.2998 8.697 13.2998C7.94106 13.2998 7.215 12.9719 6.67349 12.3858C6.13199 11.7997 5.81785 11.0019 5.798 10.1622Z" fill="white"/>
</g>
<defs>
<clipPath id="clip0_164_923">
<rect width="18" height="20" fill="white" transform="translate(0 0.5)"/>
</clipPath>
</defs>
</svg>
