<svg width="13" height="20" viewBox="0 0 13 20" fill="none" xmlns="http://www.w3.org/2000/svg">
<g clip-path="url(#clip0_164_981)">
<path fill-rule="evenodd" clip-rule="evenodd" d="M6.99806 0.225576C6.71553 -0.0848174 6.17084 -0.0729674 5.9012 0.249276L0.416821 6.84323C0.131365 7.1407 0.152944 7.69035 0.460789 7.9629C0.768671 8.23545 1.29683 8.17253 1.53681 7.83473L5.71646 2.80563V18.4782C5.71092 18.8821 6.06495 19.2536 6.45539 19.2536C6.84583 19.2536 7.19986 18.8821 7.19434 18.4782V2.67424L11.5934 7.53607C11.7918 7.7582 12.1243 7.83932 12.3977 7.73228C12.6711 7.62525 12.8684 7.33668 12.875 7.03436C12.8659 6.82071 12.7746 6.61502 12.6672 6.49683L6.99806 0.225576Z" fill="white"/>
</g>
<defs>
<clipPath id="clip0_164_981">
<rect width="13" height="20" fill="white"/>
</clipPath>
</defs>
</svg>
