<svg width="1920" height="114" viewBox="0 0 1920 114" fill="none" xmlns="http://www.w3.org/2000/svg">
<path fill-rule="evenodd" clip-rule="evenodd" d="M422.535 73.2041V73.1974L422.595 73.2161L422.535 73.2099V73.2041C422.431 73.2848 422.613 73.3889 423.58 73.4722L423.844 73.4941C423.414 73.4509 423.004 73.3348 422.594 73.2104C424.854 73.3478 427.305 73.4103 424.758 73.3041C423.845 73.0287 422.775 73.0724 422.535 73.1916C421.489 72.8601 420.552 72.4535 419.867 72.8845C419.687 72.9975 421.057 73.1162 422.535 73.2041ZM9.35803 110.233C12.458 109.714 15.402 108.657 19.0179 108.201C27.9579 107.081 38.785 106.249 47.4611 105.705C63.1421 104.723 77.201 100.038 93.399 98.1738C107.722 96.5226 123.259 94.0771 137.029 93.0698C142.894 92.6378 149.695 93.0136 155.535 91.731C160.233 90.6992 161.23 88.4911 167.599 89.0038C168.008 89.617 167.251 89.9798 165.328 90.0865C184.83 90.3989 205.342 87.0273 225.661 85.9201C238.579 85.2132 251.724 84.1565 264.666 83.4746C279.422 82.6927 293.433 80.6912 307.912 80.7724C315.158 80.8099 321.274 80.2909 328.364 79.6652C334.132 79.1587 346.064 79.3773 350.474 76.9818C351.735 76.2998 338.686 76.9818 337.748 77.038C332.666 77.3451 327.438 77.2134 322.103 77.6637C312.935 78.433 304.692 79.5652 295.583 80.2092C275.3 81.6355 254.596 81.8541 234.001 83.6557C223.426 84.5818 214.943 85.2069 204.489 85.3886C184.446 85.7389 166.181 84.2502 145.093 86.0955C141.212 86.4333 138.292 86.9273 134.675 87.209C132.888 87.6019 131.174 88.0794 129.555 88.6353C128.459 88.3342 127.39 88.0085 126.348 87.6592C121.288 87.9221 116.086 88.034 111.075 88.4598C105.091 88.9663 89.505 93.0073 84.291 89.9673C83.438 89.3292 105.956 87.5406 108.179 87.4651C111.045 87.3178 140.346 85.7691 144.042 84.8852C142.372 85.0987 136.707 83.5682 136.261 83.3309C137.511 83.0805 145.513 82.0045 146.018 82.1987C144.672 81.573 141.728 81.4293 138.063 81.5418C142.233 81.0353 145.489 80.5532 145.453 80.497C144.888 79.7464 132.115 80.8666 130.913 81.0665C130.385 81.2476 120.436 82.6115 120.267 82.4303C120.46 82.6864 121.445 82.7676 122.719 82.7864C116.049 83.5245 109.741 84.3376 106.461 84.5942C98.061 85.2449 92.978 86.4146 84.928 85.4073C87.8719 84.1502 97.28 83.068 101.474 82.2674C107.122 81.1914 112.685 80.572 118.634 79.9031C128.042 78.8396 137.474 78.0015 147.075 77.1754C164.739 75.6554 183.004 74.7236 201.005 73.1162C226.563 70.8393 252.698 70.1199 278.365 67.7181C290.08 66.6234 302.289 66.273 314.185 65.1726C319.087 64.7218 323.473 64.2528 328.352 63.7713C334.48 63.1643 358.609 60.419 364.268 61.9509C364.742 62.0806 339.413 64.3658 337.736 65.2408C339.317 64.765 366.718 64.0909 368.666 63.8525C373.485 63.2523 379.288 60.5814 385.536 62.0134C384.888 62.2513 384.239 62.4954 383.59 62.7328C388.877 63.4772 394.585 61.7385 399.86 61.4694C406.169 61.1503 413.006 61.4444 419.218 60.888C431.547 59.787 443.9 60.1623 456.3 58.7922C476.271 56.5841 499.57 56.1088 520.515 54.9891C542.3 53.8257 564.05 52.3499 585.799 51.0236C590.361 50.7451 644.208 48.893 654.599 47.4917C650.272 48.2751 642.299 48.6265 640.569 49.5411C633.792 53.1188 642.696 52.3 649.497 51.8617C657.824 51.3239 666.86 51.4114 675.175 50.9299C687.685 50.2042 700.097 48.6093 712.245 47.9586C715.442 47.7899 719.299 48.1273 722.567 48.121C728.947 48.1023 731.483 46.7572 735.857 46.4136C744.268 45.7504 755.047 46.082 764.011 46.4011C771.173 46.6578 777.698 45.4693 784.523 45.119C801.994 44.2242 820.139 44.3122 837.13 43.017C852.186 41.8724 867.495 41.66 882.118 41.0718C902.786 40.2462 923.79 38.9453 944.086 38.1322C975.749 36.8621 1007.98 35.2859 1039.87 33.8976C1055.15 33.2344 1069.07 32.5337 1084.1 31.477C1090.28 31.045 1134.27 28.437 1135.11 30.2069C1130.99 30.501 1115.06 30.2631 1112.54 32.1022C1112.3 32.2833 1134.07 31.4827 1134.59 31.464C1141.03 31.2329 1147.38 31.0762 1154.01 30.6072C1164.97 29.8316 1175.6 29.4568 1186.39 28.349C1199.68 26.9852 1213.31 27.5984 1226.83 26.5667C1236.69 25.8098 1242.69 25.2278 1252.48 24.7151C1274.76 23.5517 1295.82 22.2066 1318.51 21.6376C1339.5 21.1061 1360.9 20.2738 1381.9 18.6913C1392.69 17.8782 1403.16 17.6471 1413.98 16.8335C1420.86 16.3145 1445.29 13.4562 1449.45 15.6888C1438.29 19.3108 1418.53 17.6846 1405.83 18.6413C1396.04 19.3795 1386.79 19.4669 1377.13 20.1988C1356.93 21.7251 1337.62 23.2576 1316.74 24.1581C1297.84 24.978 1278.75 25.7661 1259.45 27.1731C1250.94 27.7926 1241.39 28.7743 1233.4 29.0372C1226.9 29.2558 1222.33 30.3948 1216.19 30.9263C1211.51 31.3328 1204.8 30.0757 1199.68 30.426C1178.59 31.8706 1156.47 34.1724 1136.14 34.8923C1127.75 35.1922 1119.01 36.4123 1111.12 36.7247C1102.32 37.0682 1094.71 36.8996 1086.04 37.8069C1076.82 38.7761 1065.99 38.8386 1056.69 39.2582C1046.07 39.7397 1035.05 40.2587 1024.56 40.9156C1007.8 41.9723 990.949 42.2352 974.283 43.18C961.593 43.8994 947.991 43.2299 935.29 45.3194C933.536 45.6068 930.724 46.8014 926.59 46.9576C923.334 47.0825 920.366 46.9638 917.073 47.0201C905.201 47.2335 894.183 48.3714 881.673 48.6338C873.491 48.8029 862.868 48.4276 855.647 50.8107C871.664 52.8689 887.597 49.7852 903.867 49.6535C925.533 49.4849 946.994 48.5151 968.419 47.133C1001.55 44.9998 1035.62 45.4189 1068.98 43.1238C1093.14 41.4596 1118.25 40.609 1142.52 39.7584C1171.78 38.7387 1200.58 35.7361 1229.71 34.0725C1292.62 30.4823 1356.52 26.3413 1420.22 23.4325C1480.3 20.6866 1541.48 16.2458 1601.11 13.4744C1627.78 12.2365 1654.02 9.71552 1680.8 8.32669C1696.56 7.50735 1712.37 5.7937 1728.15 5.03058C1736.25 4.63653 1782.35 -0.198845 1784.4 2.10301C1784.08 1.74019 1712.38 8.13304 1702.49 8.9399C1680.48 10.729 1655.97 11.5046 1633.21 13.3182C1595.28 16.3332 1556.21 19.4919 1517.89 21.2561C1474.57 23.2513 1431.12 26.5292 1387.45 28.3178C1350.65 29.8191 1313.88 32.4458 1276.97 33.8471C1250.84 34.8418 1224.99 37.8006 1198.72 38.7074C1183.05 39.2451 1164.26 38.9078 1148.99 41.9348C1164.6 43.5798 1181.27 40.1962 1196.52 40.0463C1210.29 39.9083 1224.94 38.1005 1239.03 37.5315C1249.69 37.0995 1261.05 36.0677 1270.96 35.6924C1279.94 35.3546 1291.82 32.9908 1300.72 33.9288C1298.7 35.0042 1292.2 33.8408 1291.08 35.2926C1289.14 37.4128 1320.76 34.4858 1322.88 34.3348C1336.94 33.3218 1351.18 33.5904 1365.1 32.909C1385.01 31.9335 1405.88 29.7691 1425.71 28.3553C1428.78 28.1367 1432.6 28.4365 1436.63 28.1304C1443.54 27.6047 1450.64 28.4807 1458.05 27.5734C1462.74 27.0045 1463.93 26.8228 1470.6 26.7104C1474.48 26.6416 1478.37 26.0097 1482.24 25.8036C1499.57 24.8718 1516.96 24.8718 1534.47 22.8573C1566.21 19.2046 1599.69 17.7158 1634.5 15.5889C1649.16 14.6946 1666.39 12.0804 1681.69 12.3927C1686.28 12.4926 1689.89 13.312 1695.21 13.1058C1700.4 12.9054 1704.76 12.2615 1709.95 11.9049C1717.72 11.3729 1725.98 11.173 1733.99 10.4661C1753.52 8.75198 1773.58 7.27622 1794.1 5.57455C1799.46 5.13052 1849.54 1.18373 1849.51 0.689728C1849.6 2.00307 1816.88 4.70524 1813.49 6.07533C1821.85 7.15077 1806.94 7.48861 1805.35 7.56409C1797.76 7.91389 1790.33 9.03359 1782.76 9.42764C1776.35 9.766 1770.64 10.1283 1764.48 10.8664C1755.25 11.9736 1726.17 11.3979 1720.55 15.5139C1721.32 15.5469 1722.04 15.7096 1722.62 15.9772C1719.28 17.7658 1709.77 16.3645 1705.82 17.772C1711.24 19.1671 1726.24 18.0786 1732.05 17.1338C1736.42 16.4207 1737.68 15.9704 1741.6 15.4452C1744.95 14.9949 1750.35 15.276 1753.79 14.7758C1762.75 13.4744 1770.54 12.7612 1780.1 12.0049C1787.8 11.3917 1795.37 9.49636 1803.05 8.54585C1811.01 7.55732 1820.37 7.8202 1828.54 7.40115C1835.52 7.03833 1842.15 5.37466 1849.29 4.48608C1854.93 3.78595 1904.58 1.58403 1905.3 0.0827713C1904.87 1.52156 1889.12 2.40337 1886.58 3.38564C1892.04 4.21124 1901.65 2.92236 1907.68 2.57203C1907.31 2.59337 1917.72 1.67356 1919.68 2.10978L1920 114L0 114V111.397C0.680054 110.981 8.58704 110.363 9.35803 110.233ZM1657.63 30.2006C1664.78 29.4 1671.91 27.7863 1679.54 28.7868C1673.85 30.8888 1655.58 31.5077 1649.12 30.6946C1650.63 29.6192 1655.64 29.9758 1657.63 30.2006ZM1687.13 27.6239C1686.25 27.4173 1685.43 27.4922 1684.64 27.8363C1685.51 28.0492 1686.35 27.9737 1687.13 27.6234L1687.13 27.6239ZM1652.33 22.4944C1653.59 23.9457 1666.85 21.3935 1669.23 21.6626C1676.1 21.3815 1692.55 20.3925 1697.84 18.4352C1695.19 18.1036 1651.89 21.8755 1652.33 22.4944H1652.33ZM1634.3 23.5891C1637.91 22.2758 1645.96 22.357 1649.86 22.9322C1645.03 23.952 1639.26 24.0774 1634.3 23.5891H1634.3ZM1623.9 32.5962C1623.79 32.6779 1644.35 31.3453 1643.49 31.0387C1641.76 30.4385 1636.72 31.2141 1634.49 30.9513C1632.36 31.1199 1625.24 31.6394 1623.9 32.5962ZM1276.06 36.3431C1276.67 36.5872 1281.33 36.6554 1282.49 36.6747C1283.17 36.6809 1289.02 36.5242 1288.55 35.6424C1287.63 33.8976 1276.97 36.6367 1276.06 36.3431ZM1237.41 38.5575C1240.37 38.4133 1243.55 38.3509 1246.51 38.7137C1250.46 38.4258 1267.99 38.495 1270.15 36.7746C1270.3 36.6435 1257.51 37.2749 1255.87 37.3379C1250.85 37.5315 1241.7 36.7684 1237.41 38.5575ZM1117.24 43.3611C1118.66 43.4611 1118.44 43.6053 1116.59 43.8052C1115.17 43.699 1115.39 43.549 1117.24 43.3611H1117.24ZM1104.26 44.7749C1105.3 44.7312 1112.64 43.7739 1112.66 43.7864C1110.11 43.1987 1099.46 45.3871 1098.27 44.9878C1099.72 45.4751 1102.69 44.8561 1104.26 44.7744V44.7749ZM1071.93 46.1507C1075.84 46.3449 1081.13 46.0321 1084.81 45.2752C1082.15 44.7182 1078.5 45.4693 1075.64 45.0628L1071.93 46.1507ZM1066.94 46.4948C1063.71 47.2767 1063.51 46.764 1061.57 46.3012C1063.85 45.713 1065.69 45.5256 1066.94 46.4948ZM1102.52 32.8778C1101.83 32.5525 1105.91 32.2964 1106.71 32.3963C1106.83 32.9902 1103.02 33.059 1102.52 32.8778ZM1084.16 33.9226C1085.24 34.6482 1096.31 33.9663 1096.87 33.0845C1097.29 31.908 1088.74 33.1032 1087.59 32.9595C1087.55 32.9653 1083.01 33.1469 1084.16 33.9226ZM1056.16 35.3858C1059.25 35.8491 1076.3 35.3109 1078.46 33.9975C1077.41 34.5857 1066.71 34.3353 1064.32 33.9913C1061.02 33.9413 1058.88 34.4858 1056.16 35.3863V35.3858ZM801.55 53.5253C805.72 54.645 815.56 53.9699 819.742 53.9886C824.717 54.0136 830.762 53.5509 835.556 52.819C841.54 49.0283 825.138 51.2677 820.511 51.5801C816.642 51.8429 803.304 51.7492 801.55 53.5253ZM776.172 55.1521C776.989 55.6648 789.282 53.3067 786.974 53.1568C786.554 53.1568 774.129 53.8819 776.172 55.1521ZM728.251 56.3405C727.061 56.353 719.107 56.5341 719.491 57.5533C720.068 59.1113 731.147 58.4357 731.868 56.9912C730.654 56.772 729.453 56.5591 728.251 56.3405ZM691.698 59.9375C691.385 61.3133 676.99 59.7745 682.085 58.6236C684.079 58.9739 692.07 58.267 691.698 59.9369V59.9375ZM655.793 61.1066C659.47 61.8073 669.131 61.3565 672.34 60.4434C673.036 60.3497 675.055 60.4622 675.524 60.0431C676.124 59.5928 658.845 59.4804 655.794 61.1066H655.793ZM638.033 62.8707C643.008 63.2523 641.963 62.1576 645.087 61.257C644.234 59.4679 637.469 61.1009 638.033 62.8707ZM618.819 63.0644C616.885 63.1456 616.536 63.0394 617.774 62.7328C619.721 62.6516 620.069 62.7578 618.819 63.0644ZM610.084 54.0948C615.214 54.0948 623.362 54.6575 627.747 52.9064C627.339 51.4676 622.437 52.6185 621.018 53.0001C617.329 53.1188 612.799 52.7752 610.084 54.0948ZM557.981 65.9295C559.724 68.1314 567.066 67.0174 569.986 66.1356C575.753 65.7921 581.269 65.4662 586.532 65.1289C594.451 64.6156 604.772 64.916 611.838 63.3148C603.871 61.826 594.042 63.2086 585.931 63.9904C576.655 64.891 566.585 63.6651 557.981 65.9295ZM549.786 66.7363C552.382 67.1304 556.876 67.8123 555.951 66.8987C555.218 66.1731 551.132 66.6176 549.786 66.7363ZM539.08 66.2231C535.56 66.436 525.201 66.348 522.702 67.9872C522.462 68.1371 538.84 68.1059 540.113 67.7181C539.765 67.2178 539.416 66.7238 539.08 66.2231ZM518.292 58.9739C519.566 59.1738 520.827 59.3742 522.089 59.5741C522.834 59.5928 528.649 59.5241 528.301 58.6236C527.833 57.3915 519.325 58.5044 518.291 58.9739H518.292ZM514.422 58.9552C515.829 59.0739 515.6 59.2175 513.75 59.3867C512.32 59.2675 512.548 59.1238 514.423 58.9547L514.422 58.9552ZM487.146 70.2328C493.358 68.2438 496.482 68.3563 503.452 68.9002C500.94 69.0507 498.393 69.2818 495.87 69.3573C493.334 70.0512 490.078 70.8018 487.146 70.2328ZM496.651 61.1004C491.796 59.9187 501.841 58.1921 502.527 59.6428C502.983 60.6126 497.828 61.0629 496.651 61.1004ZM492.397 60.4627C489.044 61.5132 484.562 62.5829 482.027 60.4752C483.673 59.6491 491.616 59.0176 492.397 60.4627ZM478.362 69.5634C480.705 69.0195 482.52 68.8315 483.745 69.8326C480.417 70.5582 480.333 70.0699 478.362 69.5634ZM460.507 62.066C460.209 62.0514 459.911 62.1295 459.617 62.3013C459.911 62.4986 460.209 62.6032 460.507 62.6172V62.066ZM454.896 62.0712C455.036 61.9949 455.164 61.9131 455.279 61.8265C454.462 61.9921 454.086 62.1201 453.99 62.2065L454.896 62.0712ZM455.25 62.243C455.55 62.1826 455.85 62.0889 456.096 61.9515C455.778 61.9322 455.486 61.9712 455.21 62.0436L455.25 62.243ZM454.295 62.3658V62.3731C452.956 63.0082 450.787 63.6188 449.295 63.0394C448.886 62.8832 453.837 62.4455 454.005 62.4267C454.084 62.3757 454.202 62.3872 454.295 62.3658ZM442.998 71.515C444.657 70.6456 461.275 74.2359 463.294 71.6779C464.183 70.6207 455.207 70.871 453.825 70.6769C452.575 70.7518 444.296 70.7581 442.998 71.515ZM398.43 66.0169C404.21 67.7936 418.33 63.0144 423.184 64.4532C420.588 63.5964 414.448 63.8462 411.84 64.866C410.314 64.9535 399.163 66.2423 398.43 66.0164V66.0169ZM388.962 74.7304C390.884 76.2192 396.868 75.1807 399.632 74.8303C398.178 73.6107 391.449 73.8605 388.962 74.7304ZM374.794 77.0067C372.247 74.1734 383.47 74.4113 384.047 75.3493C384.852 76.6439 375.864 77.0317 374.794 77.0067ZM353.706 68.8399C355.625 68.9612 358.312 68.6467 359.774 68.45C359.654 68.4562 369.567 67.5619 369.399 67.5182C366.299 66.3053 357.189 68.7847 353.557 68.7925L353.706 68.8399ZM328.64 69.9955C329.493 69.5384 316.095 70.3953 320.337 70.6514C322.284 70.6082 327.174 70.7019 328.64 69.9955ZM311.625 70.9335C312.13 71.1209 315.903 71.1209 315.819 70.5145C314.966 70.3828 310.964 70.6456 311.625 70.9335ZM311.625 67.2116C312.755 67.5182 299.97 68.1059 303.165 67.4807C304.932 67.3053 309.847 66.6551 311.625 67.2116ZM285.742 72.2593C291.342 71.2458 298.252 71.1459 303.839 71.8341C299.825 73.2354 290.212 73.1162 285.742 72.2593ZM275.601 73.2604C274.976 72.2718 282.631 71.5025 283.387 73.1412C283.135 73.1724 276.129 74.1234 275.601 73.2604ZM255.581 74.4488C257.877 75.1307 260.401 75.1182 263.14 74.4113C264.648 74.43 269.137 74.5045 270.193 73.8189C269.397 74.2947 257.338 73.379 255.582 74.4488H255.581ZM1753.22 29.6499L1753.22 29.704C1755.51 29.2616 1763.49 29.4828 1766.21 28.5495C1767.73 28.4245 1776.27 27.1481 1776.89 27.2793C1774.2 26.5792 1757.07 28.3308 1753.22 29.6499ZM1753.22 29.6499C1753.04 29.7093 1752.87 29.7786 1752.72 29.8566C1752.82 29.7982 1752.99 29.7472 1753.22 29.704L1753.22 29.6499Z" fill="white"/>
</svg>
