<svg width="96" height="93" viewBox="0 0 96 93" fill="none" xmlns="http://www.w3.org/2000/svg">
<path d="M25.3152 33.6561L27.12 35.4045L46.7232 16.4139V78.882H49.2768V16.4139L68.88 35.4045L70.6848 33.6561L48 11.6895L25.3152 33.6561Z" fill="black"/>
<path d="M48 0.929688C22.0608 0.929688 0.959961 21.3711 0.959961 46.4997C0.959961 71.6283 22.0608 92.0697 48 92.0697C73.9392 92.0697 95.04 71.6283 95.04 46.4997C95.04 21.3711 73.9392 0.929688 48 0.929688ZM48 89.9121C23.2896 89.9121 3.17756 70.4379 3.17756 46.4997C3.17756 22.5615 23.2896 3.08729 48 3.08729C72.72 3.08729 92.8224 22.5615 92.8224 46.4997C92.8224 70.4379 72.7104 89.9121 48 89.9121Z" fill="black"/>
</svg>
