<svg width="21" height="13" viewBox="0 0 21 13" fill="none" xmlns="http://www.w3.org/2000/svg">
<g clip-path="url(#clip0_164_915)">
<path fill-rule="evenodd" clip-rule="evenodd" d="M18.684 8.75479C20.36 10.3108 20.707 11.0678 20.764 11.1618C21.458 12.3128 19.995 12.4028 19.995 12.4028L17.197 12.4428C17.197 12.4428 16.595 12.5608 15.804 12.0178C14.758 11.2988 13.771 9.43179 13.001 9.67479C12.222 9.92279 12.247 11.6048 12.247 11.6048C12.247 11.6048 12.252 11.9618 12.075 12.1528C11.881 12.3608 11.502 12.4028 11.502 12.4028H10.25C10.25 12.4028 7.48799 12.5688 5.05399 10.0348C2.39999 7.27279 0.0559861 1.78879 0.0559861 1.78879C0.0559861 1.78879 -0.0790139 1.43079 0.0679861 1.25579C0.232986 1.06079 0.682986 1.04779 0.682986 1.04779L3.67599 1.02779C3.67599 1.02779 3.95799 1.07479 4.16099 1.22379C4.32699 1.34579 4.41899 1.57379 4.41899 1.57379C4.41899 1.57379 4.90399 2.79779 5.54399 3.90479C6.79499 6.06679 7.37699 6.53879 7.80199 6.30779C8.42199 5.96979 8.23599 3.25279 8.23599 3.25279C8.23599 3.25279 8.24599 2.26679 7.92299 1.82679C7.67299 1.48679 7.20299 1.38779 6.99399 1.35879C6.82599 1.33679 7.10199 0.94579 7.45999 0.77079C7.99999 0.50679 8.95099 0.49079 10.075 0.50279C10.951 0.51279 11.203 0.56679 11.545 0.64979C12.577 0.89979 12.227 1.86079 12.227 4.16979C12.227 4.90779 12.093 5.94779 12.627 6.29279C12.857 6.44279 13.417 6.31579 14.82 3.93379C15.485 2.80479 15.984 1.47679 15.984 1.47679C15.984 1.47679 16.092 1.23979 16.261 1.13879C16.435 1.03479 16.668 1.06879 16.668 1.06879L19.819 1.04879C19.819 1.04879 20.765 0.93479 20.919 1.36179C21.08 1.81179 20.565 2.85779 19.279 4.57279C17.164 7.38979 16.929 7.12579 18.684 8.75479Z" fill="white"/>
</g>
<defs>
<clipPath id="clip0_164_915">
<rect width="21" height="12" fill="white" transform="translate(0 0.5)"/>
</clipPath>
</defs>
</svg>
